<svg version="1.1" id="Layer_1" xmlns="http://www.w3.org/2000/svg" xmlns:xlink="http://www.w3.org/1999/xlink" x="0px" y="0px" viewBox="0 0 109.35 122.88" style="enable-background:new 0 0 109.35 122.88" xml:space="preserve"><style type="text/css">.st0{fill-rule:evenodd;clip-rule:evenodd;fill:#f8312f}</style><g><path class="st0" d="M55.15,85.62c1.73,11.9-0.93,21.51-8.05,31.37c-1.6,2.21-3.29,3.99-5.25,5.89c-0.01-2.63-1.69-3.76-4.22-4.34 C48.04,108.25,52.33,96.9,53.7,85.62h-2.36c-7.79-0.77-16.33,12.35-26.35,15.92c4.77-9.16-0.56-10.4-12.66-6.33 c9.05-10.8,9.93-14.79,0-13.35c5.13-3.88,9.9-6.11,14.38-7.02c-9.33-2.97-17.63-7.97-24.64-15.57c13.16-0.48,9.93-9.37-2.05-22.76 c15.93,8.01,24.33,9.02,21.73-0.17c4.71,3.18,10.75,9.27,17.11,16.09c-2.45-12.5-4.29-24.34-3.42-33.2 C41.63,28.56,48.3,19.12,54.84,0c5.51,17.44,11.43,27.12,18.92,20.08c0.97,7.76-0.07,16.06-2.74,24.81l-0.17,6.67 c6.21-6.7,12.31-13.03,17.22-15.44c-3.05,10.09,7.63,6.57,21.28,0.38c-12.92,14.44-13.94,22.06-2.57,22.59 c-4.73,7.36-13.07,11.84-22.76,15.23c4.22,1.21,8.44,3.49,12.66,7.02c-8.73-0.72-6.9,5,0.25,14.2c-10.92-3.2-16.49-2.33-13.04,6 C70.98,90.74,61.77,85.51,56.13,85.62H55.15L55.15,85.62z"/></g></svg>
